<svg xmlns="http://www.w3.org/2000/svg" width="138" height="39.001"><g data-name="Vector Smart Object"><path data-name="Контур 19" d="M85.82 31.755c-15.071 2.227-32.646-.157-46.813-5.657a98.73 98.73 0 0 1-22.382-12.85 133.446 133.446 0 0 1-10.342-8.4C5.321 3.982 2.056-.386.783.026c-4.276 1.393 10.254 14.448 11.918 15.741 7.039 5.468 14.451 10.665 22.638 14.236 13.734 5.988 30.113 9.864 45.127 8.83 8.743-.6 17.511-1.115 26.03-3.657a59.342 59.342 0 0 0 10.395-4.2 63.114 63.114 0 0 0 6.9-4.04c1.614-1.12 3.114-3.389 4.817-4.181.183 3.346-2.644 6.957-2.711 10.436-.08 4.136 2.857 2.347 4.241-.025a110.092 110.092 0 0 0 5.5-11.884c1.481-3.408 4.192-7.407.522-10.071-3.223-2.34-7.454-3.474-11.049-5.063-2.4-1.062-7.089-4.62-9.79-3.022-8.441 4.991 12.47 9.632 13.758 10.577-1.093 1.1-2.815 1.728-4.1 2.64-1.856 1.321-3.5 2.895-5.368 4.208a65.972 65.972 0 0 1-11.344 6.366 59.135 59.135 0 0 1-22.45 4.835c-5.45.808 1.077-.005.003.003z" fill="#fff"/></g></svg>